Coordinates
version=1
nRows=9
nColumns=36
inDegrees=yes

Units are S.I. units (second, meters, Newtons, ...)
If the header above contains a line with 'inDegrees', this indicates whether rotational values are in degrees (yes) or radians (no).

endheader
time	pelvis_tilt	pelvis_list	pelvis_rotation	pelvis_tx	pelvis_ty	pelvis_tz	hip_flexion_r	hip_adduction_r	hip_rotation_r	knee_angle_r	knee_angle_r_beta	ankle_angle_r	subtalar_angle_r	mtp_angle_r	hip_flexion_l	hip_adduction_l	hip_rotation_l	knee_angle_l	knee_angle_l_beta	ankle_angle_l	subtalar_angle_l	mtp_angle_l	lumbar_extension	lumbar_bending	lumbar_rotation	arm_flex_r	arm_add_r	arm_rot_r	elbow_flex_r	pro_sup_r	arm_flex_l	arm_add_l	arm_rot_l	elbow_flex_l	pro_sup_l
      4.05000000	    -20.57057789	      1.67789452	     -1.53814037	     -0.37365379	      0.66066089	     -0.63014937	     93.17945937	    -11.66344225	      6.30261187	    103.15490445	      1.80039272	     35.21023052	     -1.75326327	     -7.49999987	     92.70735339	    -18.17826231	      1.40991495	    101.03520580	      1.76339700	     36.53453279	     14.23353309	     -7.49999987	    -24.81554623	     -2.50129516	     -2.65284167	      6.35736069	    -20.63808668	     -6.00961331	     88.02259040	    103.65162692	      9.84516377	    -21.84218938	    -10.20786886	     85.09110457	     85.60358586
      4.06000000	    -20.60868426	      1.67526265	     -1.54177139	     -0.37438640	      0.66037047	     -0.62995154	     93.26823236	    -11.56874024	      6.33093198	    103.14214767	      1.80017007	     35.14024312	     -1.95501366	     -7.49999987	     92.83315762	    -18.28188200	      1.36845692	    101.02468146	      1.76321332	     36.47227102	     14.27885207	     -7.49999987	    -24.81980121	     -2.49830546	     -2.64577801	      6.45412610	    -20.56947906	     -5.96435489	     88.06887236	    102.73748362	      9.92563843	    -21.92754617	    -10.09351365	     85.15249648	     84.93079204
      4.07000000	    -20.65571556	      1.67703370	     -1.50217487	     -0.37508014	      0.66010103	     -0.62984866	     93.40836502	    -11.56891802	      6.33791770	    103.16628671	      1.80059138	     35.01652507	     -2.09734794	     -7.49999987	     92.94052353	    -18.27343772	      1.36283019	    100.99797085	      1.76274713	     36.44220067	     14.26223563	     -7.49999987	    -24.81854030	     -2.48347536	     -2.64493973	      6.49311215	    -20.56173389	     -5.84419216	     88.17998179	    101.21211974	     10.01818958	    -21.99516593	     -9.92265400	     85.23497674	     83.78018180
      4.08000000	    -20.62700484	      1.67678331	     -1.40699140	     -0.37568001	      0.66004259	     -0.62991462	     93.49634861	    -11.73254731	      6.29239296	    103.22759590	      1.80166143	     34.90822556	     -2.04428687	     -7.49999987	     92.93380938	    -18.04531384	      1.46034570	    100.94817072	      1.76187795	     36.45413930	     14.18246421	     -7.49999987	    -24.91230374	     -2.44537950	     -2.68772208	      6.55771006	    -20.58867471	     -5.71845842	     88.21246708	    100.37740576	     10.14847073	    -22.00800566	     -9.79598578	     85.21568370	     83.07817777
      4.09000000	    -20.54649254	      1.70530417	     -1.33663820	     -0.37628613	      0.66029005	     -0.62991883	     93.48782075	    -11.83294017	      6.27875603	    103.23036746	      1.80170980	     34.81374015	     -2.29183487	     -7.49999987	     92.83869337	    -17.74793686	      1.56682152	    100.87099840	      1.76053104	     36.38256902	     13.57652655	     -7.49999987	    -25.06982086	     -2.47487910	     -2.74875716	      6.68502714	    -20.58033844	     -5.59898918	     88.08897543	     99.35453890	     10.34642814	    -21.98055269	     -9.69847122	     85.05870276	     82.36842730
      4.10000000	    -20.63474529	      1.79058051	     -1.25971772	     -0.37698970	      0.66023246	     -0.63001286	     93.65011923	    -11.92282352	      6.37562776	    103.20901017	      1.80133705	     34.80396545	     -2.03646337	     -7.49999987	     92.90757896	    -17.55651588	      1.55804766	    100.78495664	      1.75902933	     36.37871817	     13.73002664	     -7.49999987	    -25.04321535	     -2.52588608	     -2.79866664	      6.75028084	    -20.55526380	     -5.43533281	     88.12399184	     98.48798392	     10.41206549	    -22.01808028	     -9.56032228	     85.04375597	     81.66392116
      4.11000000	    -20.60228752	      1.78901907	     -1.21511079	     -0.37764703	      0.66044351	     -0.62999882	     93.60495340	    -11.91499375	      6.36404547	    103.15489602	      1.80039258	     34.79823586	     -2.35149906	     -7.49999987	     92.90107754	    -17.57075768	      1.46062816	    100.71801786	      1.75786103	     36.23287801	     13.24804003	     -7.49999987	    -25.14827485	     -2.51257191	     -2.80178955	      6.89584094	    -20.49034984	     -5.35640915	     87.97268187	     97.73443089	     10.57467848	    -21.97077987	     -9.49945522	     84.88636478	     81.19812700
      4.12000000	    -20.57991980	      1.82983355	     -1.18424959	     -0.37830711	      0.66070720	     -0.62994427	     93.60361888	    -11.92071583	      6.38493506	    103.09256300	      1.79930466	     34.73369847	     -2.66091473	     -7.49999987	     92.86330863	    -17.55615571	      1.34193765	    100.61925651	      1.75613732	     36.05640635	     12.74702322	     -7.49999987	    -25.23701159	     -2.55846804	     -2.80452047	      7.09573426	    -20.43456342	     -5.22362209	     87.71443747	     96.64848237	     10.79417149	    -21.96135915	     -9.36917620	     84.64782491	     80.46735581
      4.13000000	    -20.64205108	      1.86889409	     -1.16711897	     -0.37893413	      0.66075474	     -0.62982906	     93.71704653	    -11.95715174	      6.44277063	    103.06879631	      1.79888985	     34.80951289	     -1.97738909	     -7.49999987	     92.91991769	    -17.54150483	      1.36190184	    100.54599328	      1.75485863	     36.14368776	     13.58936093	     -7.49999987	    -25.19682314	     -2.62367660	     -2.88082768	      7.33338272	    -20.35415476	     -5.29979668	     86.83878073	    103.62435857	     10.85716425	    -21.97704957	     -9.36871145	     83.93841951	     84.80662816
